<svg width="16" height="15" viewBox="0 0 16 15" fill="none" xmlns="http://www.w3.org/2000/svg">
<path d="M16 7.3125C16 6.68359 15.6445 6.10938 15.125 5.80859V1.65234C15.125 1.40625 14.9336 0.75 14.25 0.75C14.0312 0.75 13.8398 0.832031 13.7031 0.96875L11.3516 2.82812C10.2031 3.75781 8.72656 4.25 7.25 4.25H2C1.01562 4.25 0.25 5.04297 0.25 6V8.625C0.25 9.60938 1.01562 10.375 2 10.375H2.90234C2.875 10.6758 2.84766 10.9766 2.84766 11.25C2.84766 12.3438 3.09375 13.3828 3.55859 14.2852C3.69531 14.5859 3.99609 14.75 4.32422 14.75H6.34766C7.05859 14.75 7.49609 13.957 7.05859 13.3828C6.62109 12.7812 6.34766 12.0703 6.34766 11.25C6.34766 10.9492 6.40234 10.6758 6.45703 10.375H7.25C8.72656 10.375 10.2031 10.8945 11.3516 11.8242L13.7031 13.6836C13.8125 13.793 14.0586 13.875 14.2227 13.875C14.9062 13.875 15.0977 13.2734 15.0977 13V8.84375C15.6445 8.54297 16 7.96875 16 7.3125ZM13.375 11.1953L12.4453 10.457C10.9688 9.28125 9.13672 8.625 7.25 8.625V6C9.13672 6 10.9688 5.37109 12.4453 4.19531L13.375 3.45703V11.1953Z" fill="#3EB7FD"/>
</svg>
